<?xml version="1.0" standalone="no"?>
<!DOCTYPE svg PUBLIC "-//W3C//DTD SVG 20010904//EN"
 "http://www.w3.org/TR/2001/REC-SVG-20010904/DTD/svg10.dtd">
<svg version="1.0" xmlns="http://www.w3.org/2000/svg"
 width="3200.000000pt" height="3200.000000pt" viewBox="0 0 3200.000000 3200.000000"
 preserveAspectRatio="xMidYMid meet">
<metadata>
Created by potrace 1.14, written by Peter Selinger 2001-2017
</metadata>
<g transform="translate(0.000000,3200.000000) scale(0.100000,-0.100000)"
fill="#000000" stroke="none">
<path d="M29475 28963 c-22 -9 -53 -19 -70 -24 -20 -5 -8 -6 35 -2 70 6 104
18 95 34 -7 11 -9 11 -60 -8z"/>
<path d="M9690 24555 c-502 -56 -843 -215 -1071 -501 -39 -49 -63 -69 -119
-95 -40 -20 -68 -39 -65 -46 2 -7 -2 -10 -9 -7 -14 6 -138 -65 -236 -134 -88
-63 -223 -194 -275 -267 -142 -200 -217 -455 -230 -787 -4 -102 -12 -183 -24
-230 -50 -193 -65 -383 -65 -798 1 -409 14 -611 60 -890 49 -300 145 -661 255
-957 27 -73 48 -143 46 -155 -2 -13 -2 -17 0 -10 8 23 22 1 17 -26 -14 -68 79
-337 167 -487 45 -76 272 -368 347 -447 20 -21 34 -39 31 -42 -9 -9 -215 -26
-309 -26 -54 0 -110 -4 -123 -9 -14 -6 -51 -11 -83 -12 -33 -1 -72 -6 -89 -10
-157 -45 -279 -94 -545 -222 -294 -142 -409 -269 -500 -555 -29 -93 -34 -101
-61 -107 -16 -4 -38 -19 -50 -33 -19 -24 -21 -36 -16 -107 3 -44 17 -127 30
-185 26 -108 37 -234 57 -645 11 -227 23 -401 42 -645 17 -216 17 -987 0
-1105 -43 -294 -180 -857 -287 -1180 -49 -147 -153 -482 -164 -525 -6 -25 -18
-85 -27 -135 -33 -183 -45 -239 -65 -294 -72 -197 -91 -260 -96 -310 -2 -31
-8 -65 -12 -76 -37 -93 -39 -129 -10 -213 14 -40 31 -71 52 -88 27 -23 37 -26
81 -20 64 7 141 54 221 134 102 102 281 368 379 562 29 58 85 161 125 229 40
68 84 147 98 175 14 28 33 60 43 71 59 66 229 605 275 875 32 179 51 230 147
384 120 190 210 298 264 316 30 10 101 1 239 -29 22 -5 63 -14 90 -20 97 -20
207 -52 248 -72 84 -39 403 -334 482 -444 78 -110 79 -113 50 -197 -28 -84
-67 -229 -83 -308 -27 -130 -32 -160 -43 -257 -15 -129 -7 -312 17 -373 23
-59 67 -123 98 -144 14 -9 45 -19 69 -22 37 -5 47 -2 74 20 17 15 46 48 63 74
l32 47 -5 245 c-3 135 -11 286 -18 335 -7 50 -12 108 -11 130 3 100 8 135 23
150 14 15 21 10 81 -57 36 -40 87 -102 114 -138 27 -36 99 -117 161 -182 62
-64 113 -121 113 -127 0 -16 171 -107 330 -175 103 -44 323 -113 430 -135 122
-25 399 -56 470 -52 41 2 111 4 155 5 l80 1 17 -35 c9 -19 22 -64 29 -100 17
-82 18 -330 2 -390 -6 -25 -23 -97 -38 -160 -14 -63 -30 -131 -34 -150 -5 -19
-14 -55 -21 -80 -6 -25 -15 -54 -19 -65 -78 -185 -83 -207 -87 -390 l-4 -175
39 -154 c53 -205 94 -288 193 -391 l76 -80 60 2 c32 0 73 8 90 17 44 23 72 82
72 151 0 31 5 77 10 103 6 26 15 70 21 97 20 94 76 264 136 409 42 104 128
276 180 359 20 31 29 37 58 37 28 0 35 4 35 19 0 10 -7 21 -15 25 -8 3 -15 13
-15 23 0 10 49 90 108 178 126 185 91 167 351 185 348 24 634 -11 944 -115 41
-13 136 -38 213 -55 175 -38 408 -114 454 -149 19 -14 71 -36 115 -49 44 -13
94 -27 110 -32 76 -22 113 -32 150 -40 22 -4 85 -18 140 -29 55 -12 125 -26
155 -32 53 -10 88 -18 168 -39 20 -5 87 -21 147 -35 148 -35 249 -61 295 -75
14 -5 39 -11 55 -14 17 -3 62 -12 100 -21 39 -9 93 -20 120 -25 46 -9 69 -14
173 -39 20 -5 80 -21 132 -36 52 -15 129 -31 170 -35 110 -12 214 -30 380 -65
74 -16 116 -17 319 -11 129 3 288 11 355 17 95 9 136 8 189 -2 99 -18 254 -1
442 50 83 22 182 48 220 56 39 9 99 23 135 32 177 41 203 43 495 33 154 -6
343 -11 421 -12 97 -2 146 -7 156 -16 9 -7 47 -19 84 -27 38 -8 87 -20 109
-26 53 -14 96 -23 245 -49 158 -28 219 -48 352 -118 89 -46 124 -72 205 -151
54 -53 143 -130 198 -171 55 -41 120 -93 145 -115 155 -142 293 -218 431 -236
112 -15 140 0 314 179 164 168 285 273 640 555 143 113 312 248 375 299 110
89 349 248 374 248 6 0 45 34 86 76 41 41 118 105 170 142 52 36 140 101 195
144 122 95 229 149 355 178 52 12 177 41 277 66 100 24 191 44 202 44 11 0 40
4 63 10 53 12 169 38 223 50 22 5 60 15 85 23 50 17 194 61 255 79 68 20 127
54 210 121 128 104 160 149 259 372 73 166 101 298 93 440 -8 127 -23 248 -42
335 -9 41 -22 116 -30 165 -14 91 -26 133 -58 194 -9 19 -17 40 -17 48 0 15
-59 128 -155 298 -46 80 -67 130 -79 185 -9 41 -27 118 -41 170 -40 148 -51
317 -37 565 7 116 12 257 12 314 0 106 8 217 35 481 25 241 38 320 66 400 11
33 70 252 123 465 24 94 78 287 120 430 43 143 107 358 142 477 95 320 124
397 235 620 151 305 209 427 209 444 0 3 53 112 118 242 117 232 212 450 231
528 21 85 60 231 74 274 19 59 20 205 3 322 -10 64 -12 143 -8 257 6 198 -8
321 -54 484 -150 525 -511 912 -781 836 -27 -7 -72 -29 -102 -48 -29 -20 -61
-41 -70 -46 -9 -6 -35 -23 -58 -38 -24 -15 -46 -27 -50 -27 -3 0 -14 -6 -22
-14 -14 -13 -138 -82 -198 -110 -13 -6 -23 -14 -23 -18 0 -5 -6 -8 -13 -8 -21
0 -120 -89 -414 -372 -356 -344 -654 -522 -1055 -632 -174 -47 -376 -82 -398
-68 -13 8 -21 7 -31 -3 -10 -9 -67 -18 -179 -26 -366 -26 -887 14 -1412 111
-32 5 -82 14 -110 20 -47 8 -95 18 -255 51 -42 9 -83 18 -173 38 -79 18 -86
16 -56 -20 14 -17 26 -34 26 -39 0 -10 24 -18 170 -56 52 -14 110 -30 128 -35
86 -25 110 -31 142 -39 19 -5 82 -20 140 -34 58 -15 125 -31 150 -37 25 -5 61
-14 80 -18 206 -50 617 -122 865 -152 246 -30 732 -38 905 -15 353 47 563 111
788 240 224 127 393 289 564 536 60 86 198 307 198 316 0 10 156 263 182 297
38 47 56 51 147 32 295 -62 584 -395 680 -785 69 -279 20 -537 -149 -792 -381
-576 -1500 -1038 -3055 -1262 -1218 -176 -2718 -202 -4250 -76 -2416 200
-4798 743 -6533 1489 -1243 535 -2168 1185 -2596 1826 -410 612 -293 1112 315
1354 175 69 442 121 724 142 324 23 801 -8 1250 -81 33 -5 92 -14 130 -20 83
-12 274 -47 330 -60 22 -5 74 -17 115 -25 41 -8 125 -27 185 -41 61 -14 126
-29 145 -34 19 -4 29 -8 23 -9 -22 -2 -14 -16 15 -27 55 -22 221 -50 269 -45
11 1 24 -3 28 -8 3 -6 20 -11 37 -11 18 0 45 -4 62 -9 41 -13 84 -24 241 -62
120 -29 647 -177 705 -199 14 -5 79 -25 145 -45 139 -42 334 -104 670 -214
132 -43 260 -84 285 -91 84 -24 105 -30 215 -66 61 -19 119 -39 130 -44 11 -5
40 -16 65 -24 25 -8 137 -47 250 -86 113 -40 216 -75 230 -80 14 -4 43 -15 65
-23 22 -9 87 -32 145 -52 58 -20 114 -40 125 -45 21 -9 23 -9 185 -65 58 -20
114 -40 125 -45 21 -9 167 -61 245 -86 25 -8 54 -19 65 -23 11 -5 36 -14 55
-21 19 -7 44 -16 55 -20 11 -5 56 -20 100 -35 80 -26 115 -40 147 -56 10 -5
26 -9 36 -9 10 0 22 -4 28 -8 5 -4 36 -16 69 -26 62 -19 98 -32 127 -47 10 -5
25 -9 33 -9 8 0 24 -4 35 -10 11 -5 28 -14 39 -19 10 -5 35 -13 55 -16 20 -4
39 -11 42 -16 3 -5 16 -9 29 -9 13 0 27 -4 30 -10 3 -5 16 -10 29 -10 12 0 26
-4 32 -9 5 -5 27 -13 49 -16 l40 -7 -60 37 c-33 20 -85 48 -115 62 -30 14 -63
29 -72 34 -10 5 -23 9 -28 9 -6 0 -30 9 -52 20 -23 11 -49 20 -58 20 -9 0 -20
4 -26 8 -5 5 -31 17 -59 26 -27 10 -60 22 -72 27 -13 5 -33 13 -45 18 -13 5
-68 26 -123 46 -55 20 -110 41 -122 46 -13 5 -33 13 -45 18 -13 4 -35 13 -50
20 -47 19 -70 28 -148 56 -41 14 -85 31 -97 36 -13 5 -33 13 -45 18 -13 5 -57
21 -98 36 -41 15 -86 31 -100 37 -38 16 -56 23 -190 73 -69 26 -135 51 -147
56 -57 23 -74 29 -168 64 -55 20 -134 50 -175 65 -41 16 -120 45 -175 65 -55
20 -109 40 -120 45 -11 5 -54 21 -95 36 -41 15 -98 37 -125 50 -90 40 -202 83
-445 169 -52 18 -167 59 -255 90 -88 31 -180 63 -205 71 -25 8 -54 19 -65 24
-31 15 -840 283 -1020 339 -1097 339 -1844 504 -2560 566 -207 18 -663 18
-825 0z m-1230 -859 c0 -33 -7 -52 -31 -82 -17 -21 -41 -62 -54 -90 -43 -94
-50 -172 -50 -559 0 -338 4 -411 25 -460 5 -11 16 -58 25 -105 9 -47 20 -96
25 -110 4 -14 13 -45 20 -70 20 -69 101 -310 122 -358 10 -24 18 -50 18 -57 0
-14 75 -140 96 -162 6 -7 52 -37 102 -67 50 -30 119 -75 154 -101 66 -49 262
-149 313 -160 17 -3 50 -10 75 -16 25 -5 52 -9 60 -9 45 2 62 0 140 -14 47 -8
99 -20 115 -27 17 -6 62 -15 100 -19 229 -26 246 -31 375 -94 122 -61 177 -96
270 -171 96 -78 116 -92 225 -150 137 -74 174 -91 282 -128 54 -19 146 -58
204 -86 58 -28 110 -51 117 -51 6 0 42 -22 79 -49 38 -27 93 -62 123 -78 30
-17 78 -42 107 -58 36 -19 78 -58 140 -129 139 -160 279 -292 358 -335 183
-101 255 -135 377 -181 254 -96 362 -116 591 -106 89 3 200 10 247 15 196 21
195 21 263 51 12 6 60 11 107 13 81 2 87 0 130 -29 25 -17 66 -43 93 -58 26
-15 47 -31 47 -35 0 -16 105 -60 178 -76 40 -8 128 -33 195 -56 67 -22 172
-52 232 -66 137 -32 151 -35 255 -67 47 -15 117 -35 155 -46 39 -10 102 -29
140 -43 39 -13 95 -32 125 -42 30 -9 82 -30 115 -45 122 -54 224 -80 319 -80
29 0 66 -4 82 -10 16 -5 70 -12 119 -14 50 -3 113 -9 140 -15 172 -32 303 -61
410 -91 22 -6 57 -16 79 -21 47 -12 72 -25 110 -56 17 -14 40 -29 53 -34 34
-13 189 -121 262 -184 36 -30 68 -55 73 -55 4 0 40 -20 78 -45 102 -65 205
-110 285 -124 39 -7 84 -16 100 -21 17 -5 95 -10 174 -11 79 -2 169 -7 201
-12 49 -8 69 -6 126 12 38 12 78 26 89 31 11 5 67 25 125 44 357 118 411 142
498 220 34 29 78 53 147 80 196 75 359 75 634 0 228 -62 382 -128 401 -173 6
-16 27 -44 47 -62 19 -19 48 -46 63 -61 32 -32 120 -206 120 -238 0 -30 136
-290 171 -328 42 -45 92 -68 180 -82 71 -11 78 -11 118 9 46 24 201 166 201
185 0 6 8 16 18 22 10 6 44 63 76 125 82 159 162 294 191 323 14 14 25 28 25
32 0 3 61 98 136 210 98 147 146 209 172 226 62 38 123 59 197 68 38 5 108 14
155 20 100 14 329 5 435 -16 39 -8 86 -17 105 -20 86 -13 202 -50 328 -103 76
-32 151 -61 167 -65 43 -10 209 -91 283 -139 87 -56 110 -92 268 -422 25 -52
29 -72 29 -145 -1 -112 -26 -197 -63 -212 -54 -21 -165 -48 -422 -103 -172
-36 -201 -42 -310 -64 -56 -11 -156 -28 -220 -37 -19 -2 -80 -15 -135 -28
-181 -44 -281 -50 -750 -51 -278 0 -492 5 -580 13 -341 31 -567 42 -815 41
-146 0 -326 4 -400 10 -272 22 -357 30 -460 46 -58 8 -141 20 -185 26 -44 5
-111 14 -150 19 -38 5 -106 13 -150 19 -232 30 -395 50 -440 56 -27 3 -86 10
-130 15 -44 6 -116 14 -160 20 -136 17 -251 29 -485 50 -445 40 -652 63 -721
81 -20 5 -47 9 -59 9 -13 0 -37 4 -54 10 -17 5 -67 17 -111 25 -44 9 -109 25
-145 35 -66 18 -98 25 -300 60 -149 26 -474 88 -525 100 -59 14 -360 80 -435
95 -503 103 -678 145 -1085 262 -143 41 -280 78 -305 83 -93 18 -126 27 -160
42 -34 15 -52 20 -175 53 -33 9 -121 36 -195 60 -74 23 -155 48 -180 55 -25 7
-56 16 -70 20 -14 4 -45 13 -70 20 -25 7 -54 16 -65 20 -11 5 -31 11 -45 15
-57 14 -217 57 -245 65 -16 5 -47 14 -67 19 -21 6 -53 15 -70 20 -18 5 -73 21
-123 36 -49 15 -102 29 -118 32 -15 3 -30 9 -33 14 -3 5 -15 9 -28 9 -12 0
-25 3 -29 6 -13 14 -223 78 -442 135 -249 66 -344 96 -444 140 -35 16 -71 29
-80 29 -10 0 -21 4 -27 9 -5 5 -27 19 -49 32 -100 56 -141 75 -153 71 -6 -2
-12 1 -12 7 0 6 -6 11 -14 11 -20 0 -137 64 -235 129 -46 31 -91 61 -100 66
-9 6 -44 29 -78 53 -34 23 -64 42 -67 42 -3 0 -70 39 -148 86 -79 48 -159 95
-178 106 -19 11 -49 31 -67 44 -17 13 -36 24 -42 24 -6 0 -11 5 -11 10 0 6 -7
10 -15 10 -8 0 -15 5 -15 10 0 6 -7 10 -16 10 -10 0 -14 5 -10 16 3 8 2 12 -4
9 -5 -3 -42 15 -82 41 -72 46 -96 64 -173 130 -22 19 -83 68 -135 110 -151
121 -542 521 -646 661 -149 199 -212 298 -366 578 -156 284 -304 680 -343 917
-28 172 -5 515 41 618 62 137 90 179 218 314 31 33 56 63 56 68 0 10 101 78
117 78 9 0 13 -15 13 -44z m-610 -2138 c29 -57 64 -120 77 -140 12 -21 23 -39
23 -42 0 -2 25 -48 56 -102 31 -55 84 -151 116 -213 33 -63 71 -131 83 -151
31 -49 106 -200 140 -280 15 -36 35 -83 45 -105 38 -84 130 -351 160 -465 85
-319 176 -611 280 -890 56 -151 80 -234 80 -277 0 -24 5 -43 10 -43 6 0 10 8
10 18 1 49 43 -73 55 -160 5 -31 4 -48 -3 -48 -18 0 -180 78 -256 123 -39 23
-106 76 -150 117 -67 64 -85 88 -126 175 -157 327 -305 727 -405 1100 -45 164
-97 369 -120 470 -44 193 -52 232 -64 303 -37 214 -48 296 -61 442 -6 69 -15
150 -19 180 -7 58 -4 90 8 90 4 0 31 -46 61 -102z m2705 -2539 c242 -40 385
-98 649 -262 72 -44 166 -97 210 -118 127 -60 486 -185 616 -214 51 -11 100
-31 155 -64 126 -75 221 -107 365 -121 47 -5 117 -12 157 -16 63 -6 74 -4 101
15 17 11 36 21 44 21 8 0 29 -28 48 -62 62 -117 152 -239 223 -301 39 -34 100
-90 135 -124 62 -59 92 -75 237 -128 11 -4 49 -11 85 -15 36 -5 98 -16 139
-25 176 -38 574 -57 720 -35 148 23 278 58 310 83 17 15 459 10 521 -5 51 -12
78 -29 169 -106 136 -115 261 -147 541 -138 96 2 200 9 230 14 144 26 235 44
291 57 22 6 35 -2 85 -50 226 -219 597 -335 1073 -335 172 0 395 16 501 36 49
9 152 44 169 58 20 15 450 10 550 -8 174 -30 193 -58 201 -297 5 -178 9 -191
61 -213 32 -13 300 -4 374 14 28 6 70 16 95 21 188 42 348 110 545 231 90 55
172 91 188 81 14 -8 1 -43 -64 -180 -34 -70 -61 -139 -60 -153 0 -14 1 -57 0
-97 -1 -151 100 -253 253 -253 58 0 68 -3 69 -17 0 -14 2 -15 6 -3 3 8 37 47
74 85 37 39 102 113 144 165 109 135 223 258 254 274 14 7 55 16 91 19 36 3
103 18 150 32 47 15 112 33 145 41 180 44 255 70 385 133 35 17 65 31 66 31 2
0 1 -8 -2 -17 -4 -11 -2 -14 3 -8 4 6 41 32 82 57 76 49 162 84 185 75 8 -3
15 -34 20 -89 9 -110 32 -183 72 -223 56 -56 132 -53 202 9 20 18 62 50 92 71
53 38 213 162 275 214 52 44 230 224 262 266 17 22 34 37 38 34 3 -4 -7 -62
-24 -130 -33 -138 -55 -244 -76 -364 -17 -96 -19 -319 -4 -364 10 -28 9 -35
-9 -54 -26 -29 -40 -58 -58 -118 -17 -57 -25 -61 -129 -78 -38 -7 -95 -16
-125 -21 -105 -17 -196 -30 -410 -61 -250 -36 -279 -40 -460 -69 -268 -43
-345 -51 -760 -70 -399 -19 -1654 1 -1770 29 l-35 8 40 7 c22 4 45 9 50 10 6
2 -165 6 -380 10 -406 7 -590 16 -910 41 -175 14 -255 20 -530 45 -55 5 -185
16 -290 24 -104 9 -224 21 -265 27 -41 6 -118 13 -170 14 -52 1 -158 6 -235
10 -166 10 -198 10 -247 0 -25 -5 -38 -4 -38 3 0 6 10 13 23 15 12 3 -30 4
-93 3 -63 0 -160 5 -215 12 -55 7 -143 17 -195 22 -52 5 -115 14 -140 19 -25
5 -85 15 -135 21 -49 7 -124 20 -165 30 -41 10 -118 25 -170 35 -197 34 -288
54 -322 71 -15 8 -58 21 -95 29 -37 8 -137 37 -222 65 -85 27 -162 50 -170 50
-9 0 -45 10 -81 21 -102 32 -197 56 -352 89 -78 16 -168 37 -198 45 -110 31
-167 47 -295 80 -137 36 -653 180 -695 194 -31 11 -291 92 -380 119 -223 68
-682 216 -715 232 -30 14 -125 50 -175 66 -25 8 -54 19 -65 23 -11 5 -63 26
-115 46 -105 41 -177 78 -335 172 -70 41 -156 80 -340 156 -88 36 -218 93
-290 127 -71 34 -168 80 -213 101 -74 35 -83 42 -79 62 3 12 9 47 13 77 4 30
10 60 14 65 4 6 10 30 13 55 14 97 27 150 67 270 58 170 93 246 121 261 55 29
160 32 304 8z m-1827 -458 c65 -48 142 -87 225 -117 43 -15 82 -35 87 -45 6
-9 32 -86 59 -171 37 -115 46 -156 38 -164 -14 -14 -122 -59 -192 -80 -27 -8
-66 -20 -85 -26 -48 -14 -135 -57 -157 -77 -10 -9 -35 -29 -56 -44 -52 -39
-68 -84 -69 -192 -1 -107 20 -216 72 -375 140 -426 427 -808 910 -1211 263
-220 785 -568 1258 -838 50 -30 92 -57 92 -62 0 -5 7 -9 15 -9 8 0 15 -4 15
-9 0 -14 267 -142 325 -155 44 -10 136 -47 165 -66 27 -18 53 -29 285 -121
161 -65 183 -74 218 -89 12 -5 137 -55 277 -110 140 -55 265 -105 278 -110 12
-6 32 -14 45 -19 12 -4 33 -13 47 -19 14 -6 83 -36 154 -67 93 -40 143 -68
179 -101 56 -50 303 -176 440 -225 43 -15 86 -34 96 -43 10 -9 23 -16 30 -16
6 0 60 -15 119 -34 131 -42 220 -65 292 -76 30 -5 75 -13 100 -19 25 -6 81
-18 125 -27 102 -20 149 -30 205 -44 25 -6 70 -15 100 -19 30 -5 134 -34 230
-66 96 -31 191 -59 210 -60 19 -2 53 -9 75 -15 22 -6 65 -15 95 -20 30 -4 82
-18 115 -30 68 -26 220 -65 405 -105 69 -14 235 -53 370 -86 245 -60 287 -70
455 -109 164 -38 184 -43 179 -52 -3 -4 16 -8 43 -8 35 0 44 -3 33 -10 -11 -7
0 -10 38 -10 28 0 52 -4 52 -10 0 -5 8 -10 18 -10 10 0 96 -16 192 -36 96 -20
227 -40 290 -44 63 -4 125 -11 138 -15 13 -5 28 -2 37 5 13 10 30 11 83 2 37
-7 119 -14 182 -16 63 -2 237 -11 385 -20 307 -18 936 -25 1130 -13 192 12
297 29 455 73 52 14 151 30 251 39 92 8 199 19 238 25 249 35 589 146 948 309
62 28 117 51 123 51 6 0 18 4 28 9 9 5 37 15 62 21 25 7 54 16 65 20 11 5 46
18 79 30 79 28 131 51 257 115 59 30 131 64 160 75 30 12 112 51 183 86 l129
66 -7 -114 c-12 -215 20 -451 78 -567 13 -25 30 -74 39 -109 27 -109 81 -171
203 -234 35 -18 64 -37 64 -41 0 -4 -17 -15 -37 -23 -21 -9 -60 -26 -88 -39
-119 -55 -399 -166 -476 -189 -46 -13 -124 -29 -174 -35 -49 -6 -114 -16 -144
-22 -40 -8 -59 -8 -76 1 -19 10 -33 8 -82 -9 -33 -12 -73 -21 -89 -21 -16 -1
-56 -8 -89 -17 -46 -12 -122 -16 -315 -19 -266 -3 -364 -11 -540 -45 -76 -15
-120 -18 -160 -13 -30 4 -64 7 -75 6 -57 -3 -301 -33 -378 -47 -48 -8 -210
-24 -360 -35 -511 -38 -545 -41 -578 -50 -19 -6 -119 -10 -223 -10 -105 0
-251 -4 -325 -9 -75 -6 -224 -15 -331 -21 -107 -5 -240 -14 -295 -19 -58 -5
-104 -5 -109 0 -6 5 -143 9 -305 10 -388 0 -658 15 -901 49 -41 6 -140 15
-219 20 -127 9 -219 21 -371 49 -25 5 -94 16 -155 25 -60 10 -173 28 -250 41
-77 14 -196 34 -265 45 -166 28 -162 28 -685 130 -115 23 -361 78 -450 101
-60 16 -92 24 -305 78 -279 72 -327 85 -600 163 -135 38 -260 74 -277 78 -18
4 -51 17 -73 29 -22 12 -47 21 -55 21 -9 0 -23 4 -33 9 -21 11 -103 36 -202
62 -41 11 -84 23 -95 28 -37 17 -130 49 -175 61 -82 22 -713 230 -840 276
-398 147 -737 275 -899 340 -530 214 -982 438 -1016 504 -19 37 -62 76 -166
152 -102 74 -261 195 -339 256 -119 95 -430 415 -555 572 -33 41 -62 77 -65
80 -3 3 -46 61 -95 128 -139 192 -181 248 -315 426 -128 169 -270 369 -270
379 0 4 -20 40 -45 81 -63 104 -358 705 -390 796 -15 41 -31 91 -35 110 -4 19
-15 57 -25 84 -13 37 -16 74 -13 155 3 102 5 110 38 165 44 73 176 214 323
344 174 155 235 197 324 225 277 89 779 218 884 226 9 0 34 -12 57 -28z m508
-778 c15 -49 35 -99 44 -113 9 -14 28 -50 43 -81 20 -44 42 -70 100 -118 119
-96 174 -102 322 -31 70 33 109 66 101 86 -3 7 3 18 12 23 12 6 22 33 31 78
17 86 38 170 46 184 5 7 13 5 23 -4 25 -22 113 -72 142 -81 35 -11 225 -35
281 -35 37 -1 47 -5 56 -23 78 -179 136 -249 241 -289 47 -18 77 -21 175 -21
64 0 151 6 191 13 41 6 82 9 90 6 21 -8 21 -85 1 -134 -8 -19 -15 -52 -15 -72
0 -20 -10 -72 -21 -116 -11 -46 -21 -118 -22 -170 -2 -89 -1 -91 33 -140 20
-27 50 -58 68 -68 44 -26 135 -34 164 -15 13 8 46 23 74 32 29 9 87 42 130 72
44 30 93 62 109 70 17 8 53 32 80 54 28 22 60 44 72 49 40 18 261 43 282 32
10 -6 38 -33 61 -61 41 -49 143 -128 185 -145 11 -4 104 -7 207 -6 l187 2 8
-48 c19 -110 1 -430 -27 -483 -16 -32 -156 -267 -228 -385 -114 -186 -121
-195 -147 -195 -28 0 -29 -3 -15 -29 13 -25 -29 -88 -111 -168 -67 -65 -224
-155 -326 -188 -52 -17 -54 -17 -125 8 -40 14 -116 38 -168 52 -166 46 -115
23 -735 324 -229 112 -294 138 -324 132 -19 -4 -252 114 -348 176 -46 29 -88
53 -95 53 -7 0 -24 9 -38 20 -14 11 -29 20 -33 20 -18 0 -349 216 -437 284
-168 131 -419 388 -552 567 -71 96 -208 318 -208 338 0 6 -11 44 -25 85 -20
60 -25 94 -25 176 0 109 10 145 55 198 63 75 247 161 366 171 12 1 24 -22 45
-86z m13439 -1828 c66 -28 67 -30 40 -90 -12 -29 -41 -76 -62 -103 -23 -28
-45 -71 -52 -98 -15 -58 -89 -288 -161 -499 -28 -82 -69 -213 -91 -290 -23
-77 -44 -146 -48 -153 -5 -9 -41 26 -111 105 -57 65 -171 184 -253 266 l-149
147 63 78 c35 42 66 79 69 82 3 3 37 41 75 85 39 44 93 104 120 133 28 30 62
72 76 95 41 65 196 197 230 197 24 0 28 4 26 22 -1 14 6 26 21 33 31 17 159
10 207 -10z m-6664 -66 c27 -38 81 -63 180 -84 62 -13 103 -14 273 -5 109 5
250 10 312 10 l112 0 7 -42 c30 -193 129 -318 252 -318 57 0 208 51 303 103
127 68 150 78 232 99 44 11 96 29 115 40 29 18 45 20 106 15 66 -6 74 -9 97
-39 227 -295 427 -354 640 -188 35 28 74 53 85 55 11 2 49 11 85 19 36 9 98
20 139 26 40 6 124 19 186 30 129 24 254 28 340 11 33 -6 93 -14 133 -17 62
-6 72 -9 72 -25 0 -42 44 -111 94 -149 139 -103 237 -114 445 -51 18 6 90 42
160 81 70 38 137 70 148 70 26 0 51 -56 87 -195 32 -122 41 -196 41 -355 0
-181 -13 -273 -70 -495 -37 -147 -50 -185 -64 -185 -5 0 -12 -18 -16 -40 -9
-52 -106 -242 -224 -439 -136 -227 -166 -268 -198 -275 -29 -6 -420 -71 -643
-107 -159 -26 -313 -54 -465 -85 -346 -72 -299 -67 -655 -61 -436 9 -940 45
-1225 88 -152 23 -377 75 -621 143 -36 10 -52 25 -136 136 -115 153 -200 278
-263 390 -26 47 -67 112 -90 145 -58 82 -81 130 -95 200 -7 33 -19 75 -27 94
-22 50 -51 201 -64 331 -11 114 -6 241 21 513 13 140 25 194 75 357 24 80 49
164 55 188 13 50 30 54 61 11z m5745 -924 c150 -117 281 -260 405 -442 63 -92
66 -107 48 -193 -13 -62 -40 -95 -133 -164 -210 -157 -356 -226 -488 -230 -31
-2 -63 -7 -70 -13 -20 -15 -162 -69 -258 -98 -47 -14 -99 -30 -116 -35 -72
-23 -74 -18 -44 122 37 168 58 233 113 352 183 399 410 797 443 777 6 -3 51
-37 100 -76z"/>
<path d="M7250 17709 c0 -5 5 -7 10 -4 6 3 10 8 10 11 0 2 -4 4 -10 4 -5 0
-10 -5 -10 -11z"/>
<path d="M9882 17500 c0 -14 2 -19 5 -12 2 6 2 18 0 25 -3 6 -5 1 -5 -13z"/>
<path d="M10942 16550 c-44 -42 -38 -109 13 -132 54 -24 116 28 101 85 -8 34
-44 67 -71 67 -12 0 -31 -9 -43 -20z"/>
<path d="M22978 21293 c7 -3 16 -2 19 1 4 3 -2 6 -13 5 -11 0 -14 -3 -6 -6z"/>
<path d="M22938 21273 c7 -3 16 -2 19 1 4 3 -2 6 -13 5 -11 0 -14 -3 -6 -6z"/>
<path d="M24465 12816 c-17 -7 -56 -41 -88 -76 -151 -163 -154 -249 -11 -337
154 -95 249 -37 315 190 19 68 20 81 9 122 -9 32 -25 56 -53 80 -35 30 -48 35
-91 35 -28 -1 -65 -7 -81 -14z"/>
<path d="M23680 12149 c-121 -33 -181 -61 -242 -114 -49 -42 -88 -103 -88
-136 0 -41 32 -39 59 4 86 139 295 217 499 187 153 -23 228 -46 351 -110 146
-76 261 -189 322 -316 26 -55 31 -77 31 -142 1 -95 -25 -155 -89 -211 -96 -85
-205 -116 -383 -108 -147 6 -233 28 -365 92 -159 77 -262 168 -335 298 -28 48
-42 63 -62 65 -59 7 -40 -70 44 -183 76 -102 189 -189 341 -260 298 -140 633
-121 810 44 56 52 89 112 107 193 44 196 -139 461 -415 601 -60 30 -191 75
-260 89 -69 14 -283 19 -325 7z"/>
<path d="M6432 12030 c-69 -16 -83 -48 -108 -244 -20 -154 -14 -208 24 -227
15 -7 36 -21 47 -30 21 -17 66 -33 123 -43 29 -5 35 -2 58 34 17 26 24 46 19
59 -4 14 -1 23 9 27 30 12 20 126 -26 299 -30 113 -67 145 -146 125z"/>
<path d="M23661 11866 c-22 -26 3 -46 58 -46 25 0 63 -5 83 -10 l38 -11 -6
-47 c-3 -26 -10 -60 -14 -77 -14 -49 -17 -228 -4 -232 14 -5 28 32 44 112 6
33 16 76 21 96 5 20 9 62 9 93 0 31 3 56 8 56 4 -1 27 -5 51 -9 50 -10 91 1
91 23 0 33 -81 52 -265 62 -85 5 -103 4 -114 -10z"/>
<path d="M24125 11701 c-79 -82 -145 -190 -145 -236 0 -49 23 -31 79 63 45 78
97 142 113 142 5 0 9 -21 7 -47 -4 -79 -1 -93 20 -93 11 0 31 15 46 33 59 69
93 49 74 -45 -6 -29 -14 -69 -19 -88 -5 -19 -12 -66 -15 -105 -6 -66 -5 -69
10 -45 42 69 76 188 78 280 2 91 -40 123 -114 85 -34 -18 -37 -15 -41 55 -4
65 -31 66 -93 1z"/>
<path d="M11315 10893 c-56 -56 -38 -192 34 -257 12 -11 21 -25 21 -33 0 -20
14 -16 44 16 31 32 45 82 46 154 0 41 -5 55 -37 93 -41 48 -78 58 -108 27z"/>
<path d="M20861 10749 c-87 -11 -97 -24 -179 -230 -41 -101 -146 -353 -234
-559 -145 -339 -257 -613 -278 -680 -5 -14 -24 -77 -45 -140 -65 -205 -105
-421 -105 -564 0 -199 113 -430 245 -499 35 -19 55 -21 155 -20 139 2 282 38
425 108 144 69 298 215 377 355 17 30 41 67 53 81 22 27 70 170 98 294 23 99
14 370 -14 452 -10 31 -19 66 -19 77 0 12 -9 62 -20 111 -11 50 -34 151 -51
225 -16 74 -35 149 -41 165 -5 17 -44 125 -85 240 -76 210 -76 210 -83 345 -7
125 -25 201 -43 183 -4 -3 -14 8 -24 25 -20 35 -47 41 -132 31z"/>
<path d="M24280 7950 c-21 -29 -19 -44 6 -48 28 -4 51 24 38 46 -16 24 -28 24
-44 2z"/>
<path d="M17940 5212 c0 -10 22 -32 32 -32 4 0 8 9 8 20 0 13 -7 20 -20 20
-11 0 -20 -4 -20 -8z"/>
</g>
</svg>
